<svg id="f043ab3d-44a4-4c17-848f-281c433e7ccf" data-name="Layer 1" xmlns="http://www.w3.org/2000/svg" viewBox="0 0 80 80"><defs><style>.a4450edd-d521-4a6c-8914-052175d896a0{fill:#2f4eb4;}.b11cba20-48ce-44e4-9a56-dc4ef3ac5e1c{fill:#688af8;}</style></defs><title>Expense tracker</title><g id="f5030db5-3a52-4553-ac1c-13c22f5c0199" data-name="Group 88"><rect id="bd902178-37ef-4a82-bdf4-e96fb62abf73" data-name="Rectangle 304-3" class="a4450edd-d521-4a6c-8914-052175d896a0" width="80" height="80" rx="20.51282"/><path id="f6e52538-db93-4f75-8511-d1d7a262d90f" data-name="cogs-solid" class="b11cba20-48ce-44e4-9a56-dc4ef3ac5e1c" d="M52.31693,35.82769l-.52616.91693a.79282.79282,0,0,1-.9682.34666,7.0838,7.0838,0,0,1-2.05744-1.19282.7959.7959,0,0,1-.17949-1.00615l.52616-.91692a5.53846,5.53846,0,0,1-1.01949-1.75693H47.03487a.79179.79179,0,0,1-.78256-.66051,7.22249,7.22249,0,0,1,0-2.37846.79693.79693,0,0,1,.78256-.66667h1.05744a5.53843,5.53843,0,0,1,1.01949-1.7559L48.58564,25.84a.78871.78871,0,0,1,.17949-1.00615A7.169,7.169,0,0,1,50.82359,23.641a.79283.79283,0,0,1,.96821.34666l.52513.9159a5.69635,5.69635,0,0,1,2.03179,0l.52615-.9159a.79283.79283,0,0,1,.96821-.34666,7.08393,7.08393,0,0,1,2.05744,1.19282A.7959.7959,0,0,1,58.08,25.84l-.52615.91692a5.53859,5.53859,0,0,1,1.01948,1.7559h1.05744a.7918.7918,0,0,1,.78256.66051,7.22255,7.22255,0,0,1,0,2.37847.7969.7969,0,0,1-.78256.66666H58.57333a5.53843,5.53843,0,0,1-1.01948,1.75693l.52615.91692a.78872.78872,0,0,1-.17948,1.00615,7.16912,7.16912,0,0,1-2.05744,1.19282.79283.79283,0,0,1-.96821-.34666l-.52615-.91693A5.69635,5.69635,0,0,1,52.31693,35.82769Zm-.67282-3.76923a2.39487,2.39487,0,1,0,0-3.26135A2.39487,2.39487,0,0,0,51.64411,32.05846Zm-7.3918,9.86667,2.16,1.07692a1.53846,1.53846,0,0,1,.67282,1.86564,15.1342,15.1342,0,0,1-2.73128,4.21846,1.53232,1.53232,0,0,1-1.94257.33949l-1.86564-1.07692a11.01226,11.01226,0,0,1-3.52,2.03179v2.15385a1.53846,1.53846,0,0,1-1.26256,1.51282,14.41666,14.41666,0,0,1-4.86564,0,1.53846,1.53846,0,0,1-1.282-1.51282V50.38051a11.1332,11.1332,0,0,1-3.52-2.03179L24.2318,49.41846a1.53847,1.53847,0,0,1-1.94257-.33948,15.11211,15.11211,0,0,1-2.70564-4.21231,1.54667,1.54667,0,0,1,.67282-1.86564l2.13436-1.07693a11.1056,11.1056,0,0,1,0-4.06461l-2.13436-1.08308a1.52821,1.52821,0,0,1-.67282-1.85949,15.05142,15.05142,0,0,1,2.70564-4.21846A1.53232,1.53232,0,0,1,24.2318,30.359l1.86564,1.07692a11.01223,11.01223,0,0,1,3.519-2.0318v-2.161a1.52719,1.52719,0,0,1,1.25641-1.50667,14.62052,14.62052,0,0,1,4.8718-.00615,1.53846,1.53846,0,0,1,1.28205,1.51282v2.15384a11.13345,11.13345,0,0,1,3.52,2.0318l1.86564-1.07692a1.53845,1.53845,0,0,1,1.94256.33948,15.031,15.031,0,0,1,2.69847,4.21846,1.53231,1.53231,0,0,1-.641,1.86565l-2.16,1.07692a11.39583,11.39583,0,0,1,0,4.07179Zm-7.53949,1.35282c3.7959-4.93744-1.84-10.57231-6.77538-6.77744-3.7959,4.93641,1.839,10.57129,6.77538,6.77641ZM52.31693,54.98974l-.52616.91693a.79282.79282,0,0,1-.9682.34666,7.08394,7.08394,0,0,1-2.05744-1.18871.7959.7959,0,0,1-.17948-1.00616l.52615-.91692a5.53841,5.53841,0,0,1-1.01949-1.75692H47.03487a.7918.7918,0,0,1-.78256-.66052,7.22249,7.22249,0,0,1,0-2.37846.79691.79691,0,0,1,.78256-.66666h1.05744a5.53835,5.53835,0,0,1,1.01949-1.75693l-.52616-.91692a.78871.78871,0,0,1,.17949-1.00615,7.16912,7.16912,0,0,1,2.05744-1.19282.79281.79281,0,0,1,.9682.34666l.52616.91692a5.69635,5.69635,0,0,1,2.03179,0l.52615-.91692a.79282.79282,0,0,1,.96821-.34666A7.08393,7.08393,0,0,1,57.90052,43.999.7959.7959,0,0,1,58.08,45.00513l-.52615.91692A5.53832,5.53832,0,0,1,58.57333,47.679h1.05744a.79178.79178,0,0,1,.78256.66051,7.22249,7.22249,0,0,1,0,2.37846.79692.79692,0,0,1-.78256.66667H58.57333a5.53838,5.53838,0,0,1-1.01948,1.75692l.52615.91692a.78874.78874,0,0,1-.17948,1.00616,7.16935,7.16935,0,0,1-2.05744,1.19282.79282.79282,0,0,1-.96821-.34667l-.52615-.91692A5.69636,5.69636,0,0,1,52.31693,54.98974Zm-.67282-3.77641a2.39487,2.39487,0,1,0,0-3.2613A2.39486,2.39486,0,0,0,51.64411,51.21333Z"/></g></svg>