<svg id="af2d8a6c-df81-4eab-889d-4f1bce99407a" data-name="Layer 1" xmlns="http://www.w3.org/2000/svg" viewBox="0 0 80 80"><defs><style>.e18664ee-e41a-474a-8092-98b45b267042{fill:#0bbbfd;}.ad389611-fcd5-4c0b-833b-3106d7724078{fill:#b8ecff;}</style></defs><title>Expense tracker</title><g id="e9dbcba0-f21a-49c7-9b15-e190b5bcf81e" data-name="Group 86"><rect id="a520958a-09cd-48d4-a700-18faacd62bd1" data-name="Rectangle 303-2" class="e18664ee-e41a-474a-8092-98b45b267042" width="80" height="80" rx="20.51282"/><path id="a1c86c8b-c8c7-40af-adc8-ac44cb326025" data-name="gamepad-solid" class="ad389611-fcd5-4c0b-833b-3106d7724078" d="M50.25641,29.74359H29.74359a10.25641,10.25641,0,1,0,7.32205,17.4359h5.86667a10.25641,10.25641,0,1,0,7.3241-17.4359ZM35.89744,41.2841a.77128.77128,0,0,1-.76923.76923H31.79487v3.33436a.77128.77128,0,0,1-.76923.76923h-2.5641a.77127.77127,0,0,1-.76923-.76923V42.05128H24.36a.77127.77127,0,0,1-.76923-.76923V38.718a.77127.77127,0,0,1,.76923-.76923h3.33231V34.61436a.77127.77127,0,0,1,.76923-.76923h2.5641a.77128.77128,0,0,1,.76923.76923v3.33436h3.33436a.77127.77127,0,0,1,.76923.76923ZM47.69231,45.641a3.07693,3.07693,0,1,1,3.07692-3.07693h0A3.07692,3.07692,0,0,1,47.69231,45.641Zm5.1282-5.12821a3.07437,3.07437,0,1,1,.00513,0Z"/></g></svg>