<svg id="e5237375-4002-4018-a7d1-052e7b253489" data-name="Layer 1" xmlns="http://www.w3.org/2000/svg" viewBox="0 0 80 80"><defs><style>.bbe71aa4-1de7-4915-9bcc-748102681de2{fill:#f5f5f5;}.ad8cecc0-426b-4362-8f95-46d68e0c8a50{fill:#dfdfdf;}</style></defs><title>Expense tracker</title><rect id="b33b8260-9b1a-4a37-985c-48f7022a82cd" data-name="Rectangle 303-2" class="bbe71aa4-1de7-4915-9bcc-748102681de2" width="80" height="80" rx="20.51282"/><path id="b50ad519-e031-4cdd-8853-c1fee1239e7b" data-name="gamepad-solid" class="ad8cecc0-426b-4362-8f95-46d68e0c8a50" d="M50.25641,29.74359H29.74359a10.25641,10.25641,0,1,0,7.32205,17.4359h5.86667a10.25641,10.25641,0,1,0,7.3241-17.4359ZM35.89744,41.2841a.77128.77128,0,0,1-.76923.76923H31.79487v3.33436a.77128.77128,0,0,1-.76923.76923h-2.5641a.77127.77127,0,0,1-.76923-.76923V42.05128H24.36a.77127.77127,0,0,1-.76923-.76923V38.718a.77127.77127,0,0,1,.76923-.76923h3.33231V34.61436a.77127.77127,0,0,1,.76923-.76923h2.5641a.77128.77128,0,0,1,.76923.76923v3.33436h3.33436a.77127.77127,0,0,1,.76923.76923ZM47.69231,45.641a3.07693,3.07693,0,1,1,3.07692-3.07693h0A3.07692,3.07692,0,0,1,47.69231,45.641Zm5.1282-5.12821a3.07437,3.07437,0,1,1,.00513,0Z"/></svg>