<svg id="b0a89ebe-7c49-4124-807e-8183bf8c78df" data-name="Layer 1" xmlns="http://www.w3.org/2000/svg" viewBox="0 0 80 80"><defs><style>.be3ba729-e4ac-41b0-86b9-5d5e4d1082fc{fill:#f5f5f5;}.bdf2cbdd-0ff8-4c3e-bbc1-de06e6fc8e32{fill:#dfdfdf;}</style></defs><title>Expense tracker</title><rect id="a3e151bf-8f3d-419f-97a5-e8f90d29ac68" data-name="Rectangle 305-3" class="be3ba729-e4ac-41b0-86b9-5d5e4d1082fc" width="80" height="80" rx="20.51282"/><path id="a4498fb1-5a18-4fc0-bad2-17823ccacc11" data-name="dice-d6-solid" class="bdf2cbdd-0ff8-4c3e-bbc1-de06e6fc8e32" d="M57.41846,28.29744,44.119,20.21026a4.94567,4.94567,0,0,0-5.16308,0L25.65744,28.29744a.6841.6841,0,0,0,0,1.159l15.881,9.46564,15.8759-9.46667a.68307.68307,0,0,0,0-1.159Zm1.10872,3.57641L42.82051,41.2359V59.17334a1.28307,1.28307,0,0,0,1.92718,1.15589L56.93949,52.919a5.399,5.399,0,0,0,2.54769-4.62359v-15.841a.64206.64206,0,0,0-.959-.58051Zm-34.93744.58051v15.841a5.398,5.398,0,0,0,2.5477,4.62359l12.19179,7.40923a1.28206,1.28206,0,0,0,1.92718-1.1559V41.2359l-15.70769-9.362a.64206.64206,0,0,0-.959.58051Z"/></svg>