<svg id="f6120b59-3b66-4af0-a5d9-e11edbb2a2cc" data-name="Layer 1" xmlns="http://www.w3.org/2000/svg" viewBox="0 0 80 80"><defs><style>.b708d9fb-7547-4dc9-b3ae-d2aea8615d3e{fill:#f5f5f5;}.aad4e899-e779-4768-998c-1dedcce94fd7{fill:#dfdfdf;}</style></defs><title>Expense tracker</title><rect id="ad570275-5158-4662-9f14-0b8cdf81ef47" data-name="Rectangle 304-2" class="b708d9fb-7547-4dc9-b3ae-d2aea8615d3e" width="80" height="80" rx="20.51282"/><path id="a725890c-a09a-4e63-b7a8-a951eb5d74f6" data-name="shopping-cart-solid" class="aad4e899-e779-4768-998c-1dedcce94fd7" d="M56.07692,43,59.4441,28.18462a1.70973,1.70973,0,0,0-1.66666-2.08821H29.801l-.65231-3.19077a1.70974,1.70974,0,0,0-1.67487-1.36718H20.17128a1.70975,1.70975,0,0,0-1.70974,1.70975h0v1.13948a1.70974,1.70974,0,0,0,1.70974,1.70872h4.97744L30.15385,50.558a3.98873,3.98873,0,1,0,4.77538.61026H49.85949a3.98772,3.98772,0,1,0,4.53025-.74154l.39282-1.72923a1.70973,1.70973,0,0,0-1.66666-2.08821h-19.119l-.46666-2.279h20.88A1.70974,1.70974,0,0,0,56.07692,43Z"/></svg>