<svg id="ab3459cf-882d-4dd5-a9a3-cf2f6737a37a" data-name="Layer 1" xmlns="http://www.w3.org/2000/svg" viewBox="0 0 80 80"><defs><style>.ad0c65cb-78af-40c0-8fc0-e8582bcd5818{fill:#a7dcff;}.ea42826b-540f-4106-9915-5d6cc79ae1aa{fill:#46b5ff;}</style></defs><title>Expense tracker</title><g id="a13a76d5-121b-4529-b8e7-ad5409872478" data-name="Group 85"><rect id="e1df86a7-bcb9-41a7-82fc-735128ccf64e" data-name="Rectangle 304-2" class="ad0c65cb-78af-40c0-8fc0-e8582bcd5818" width="80" height="80" rx="20.51282"/><path id="b4c9aa64-1e85-43e6-b4db-cd4b306f2504" data-name="shopping-cart-solid" class="ea42826b-540f-4106-9915-5d6cc79ae1aa" d="M56.07692,43,59.4441,28.18462a1.70973,1.70973,0,0,0-1.66666-2.08821H29.801l-.65231-3.19077a1.70974,1.70974,0,0,0-1.67487-1.36718H20.17128a1.70975,1.70975,0,0,0-1.70974,1.70975h0v1.13948a1.70974,1.70974,0,0,0,1.70974,1.70872h4.97744L30.15385,50.558a3.98873,3.98873,0,1,0,4.77538.61026H49.85949a3.98772,3.98772,0,1,0,4.53025-.74154l.39282-1.72923a1.70973,1.70973,0,0,0-1.66666-2.08821h-19.119l-.46666-2.279h20.88A1.70974,1.70974,0,0,0,56.07692,43Z"/></g></svg>