<svg id="fb88c70a-abf8-438c-a46d-0d39f63abeb2" data-name="Layer 1" xmlns="http://www.w3.org/2000/svg" viewBox="0 0 80 80"><defs><style>.b07e5621-7627-420b-913e-d5f69ff9f0c3{fill:#ff590d;}.f9aeda50-c876-474c-aad5-ba87c5046e32{fill:#ffc1a5;}</style></defs><title>Expense tracker</title><g id="e5b4a869-1393-4f38-b07d-807420344261" data-name="Group 83"><rect id="e492b1ff-5a3b-4216-8729-e9b6c1eefd99" data-name="Rectangle 305" class="b07e5621-7627-420b-913e-d5f69ff9f0c3" width="80" height="80" rx="20.51282"/><path id="ecac6d56-45c3-42d2-bb40-5df0e14a6fe2" data-name="subway-solid" class="f9aeda50-c876-474c-aad5-ba87c5046e32" d="M58.46154,28.20513V48.718c0,4.15179-4.93744,7.69231-10.41846,7.69231l5.04615,3.98358a.64206.64206,0,0,1-.39692,1.14462h-24.359a.641.641,0,0,1-.39692-1.14462l5.04615-3.98358c-5.46461,0-10.41846-3.52923-10.41846-7.69231V28.20513c0-4.24821,5.12821-7.69231,10.25641-7.69231H48.20513C53.41333,20.51282,58.46154,23.95692,58.46154,28.20513ZM38.58974,39.10256V30.12821a1.92307,1.92307,0,0,0-1.92307-1.92308H28.33333a1.92307,1.92307,0,0,0-1.92307,1.92308h0v8.97435a1.92307,1.92307,0,0,0,1.92307,1.92308h8.33334a1.92307,1.92307,0,0,0,1.92307-1.92308Zm16.02564,0V30.12821a1.92307,1.92307,0,0,0-1.92307-1.92308H44.359a1.92307,1.92307,0,0,0-1.92307,1.92308h0v8.97435A1.92307,1.92307,0,0,0,44.359,41.02564h8.33334a1.92307,1.92307,0,0,0,1.92307-1.92308Zm-3.84615,4.48718a3.84616,3.84616,0,1,0,3.84615,3.84616,3.84616,3.84616,0,0,0-3.84615-3.84616Zm-20.51282,0a3.84616,3.84616,0,1,0,3.84615,3.84616,3.84616,3.84616,0,0,0-3.84615-3.84616Z"/></g></svg>