<svg id="f0e3bd3e-165f-4ffd-90b9-e6a0a8483b07" data-name="Layer 1" xmlns="http://www.w3.org/2000/svg" viewBox="0 0 80 80"><defs><style>.eb6ec9df-b7b2-495a-bf7a-f3d1a7e07743{fill:#f5f5f5;}.aa7e775c-4558-4d2e-bea2-4d146ed3bedf{fill:#dfdfdf;}</style></defs><title>Expense tracker</title><rect id="ac59a6ec-0b3a-49c3-85f5-8456ada4390f" data-name="Rectangle 305" class="eb6ec9df-b7b2-495a-bf7a-f3d1a7e07743" width="80" height="80" rx="20.51282"/><path id="f0b7d4a0-6aa2-4c7f-a006-67f21cc89a68" data-name="subway-solid" class="aa7e775c-4558-4d2e-bea2-4d146ed3bedf" d="M58.46154,28.20513V48.718c0,4.15179-4.93744,7.69231-10.41846,7.69231l5.04615,3.98358a.64206.64206,0,0,1-.39692,1.14462h-24.359a.641.641,0,0,1-.39692-1.14462l5.04615-3.98358c-5.46461,0-10.41846-3.52923-10.41846-7.69231V28.20513c0-4.24821,5.12821-7.69231,10.25641-7.69231H48.20513C53.41333,20.51282,58.46154,23.95692,58.46154,28.20513ZM38.58974,39.10256V30.12821a1.92307,1.92307,0,0,0-1.92307-1.92308H28.33333a1.92307,1.92307,0,0,0-1.92307,1.92308h0v8.97435a1.92307,1.92307,0,0,0,1.92307,1.92308h8.33334a1.92307,1.92307,0,0,0,1.92307-1.92308Zm16.02564,0V30.12821a1.92307,1.92307,0,0,0-1.92307-1.92308H44.359a1.92307,1.92307,0,0,0-1.92307,1.92308h0v8.97435A1.92307,1.92307,0,0,0,44.359,41.02564h8.33334a1.92307,1.92307,0,0,0,1.92307-1.92308Zm-3.84615,4.48718a3.84616,3.84616,0,1,0,3.84615,3.84616,3.84616,3.84616,0,0,0-3.84615-3.84616Zm-20.51282,0a3.84616,3.84616,0,1,0,3.84615,3.84616,3.84616,3.84616,0,0,0-3.84615-3.84616Z"/></svg>