<svg id="adaf16d2-3dc6-426d-8938-c4a0c8935f35" data-name="Layer 1" xmlns="http://www.w3.org/2000/svg" viewBox="0 0 80 80"><defs><style>.e7877149-b59c-4f98-b371-81202b11e82e{fill:#ffcb0d;}.b58f8da9-7691-4189-ad3b-0232b13cac5f{fill:#fff0b8;}</style></defs><title>Expense tracker</title><g id="af4c4cf2-ab59-4da9-b2c4-2e4b0ae619c0" data-name="Group 84"><rect id="eabd70eb-8567-436e-9ae7-b99c39386e64" data-name="Rectangle 305-2" class="e7877149-b59c-4f98-b371-81202b11e82e" width="80" height="80" rx="20.51282"/><g id="fe8d3684-6009-45ae-8bfe-b1b25b8c6ff4" data-name="Group 10"><path id="b352b8b2-8f2e-49c9-b1a1-4923a0705d6e" data-name="tint-solid" class="b58f8da9-7691-4189-ad3b-0232b13cac5f" d="M53.42975,27.399a1.678,1.678,0,0,0-3.22872,0c-2.58359,8.7159-8.10871,11.0882-8.10871,17.22667a9.77538,9.77538,0,0,0,9.71248,9.83788l.01059.00006a9.77538,9.77538,0,0,0,9.72314-9.82735l-.00006-.01059c0-6.17334-5.51282-8.47077-8.10872-17.23077ZM51.81539,50.9282a6.19487,6.19487,0,0,1-6.18769-6.18462.88411.88411,0,0,1,1.76821,0A4.42461,4.42461,0,0,0,51.81539,49.161a.88411.88411,0,1,1,0,1.76821Z"/><path id="f11d38d9-6d3b-49ef-8f86-369c09bbe730" data-name="bolt-solid" class="b58f8da9-7691-4189-ad3b-0232b13cac5f" d="M39.47691,33.84H32.08409l2.72923-8.3159a1.53846,1.53846,0,0,0-1.48615-1.93436H24.10152a1.53847,1.53847,0,0,0-1.52615,1.33334L20.52409,40.29744A1.53848,1.53848,0,0,0,22.04922,42.041h7.60307L26.70255,54.50154a1.53846,1.53846,0,0,0,2.82564,1.121L40.80306,36.14667A1.53847,1.53847,0,0,0,39.47691,33.84Z"/></g></g></svg>