<svg id="e1bc2bce-4c7e-44d4-b98e-463b59221084" data-name="Layer 1" xmlns="http://www.w3.org/2000/svg" viewBox="0 0 80 80"><defs><style>.f10391e4-c1ba-45e7-9c53-2116b2557b91{fill:#f5f5f5;}.abec3a29-65dc-4b85-9959-61cf61509a00{fill:#dfdfdf;}</style></defs><title>Expense tracker</title><rect id="a4b6c084-88ab-4fa4-9edf-e76eb92e3aae" data-name="Rectangle 305-2" class="f10391e4-c1ba-45e7-9c53-2116b2557b91" width="80" height="80" rx="20.51282"/><g id="e50444d0-c1dd-45fd-a637-f83390f2f2a4" data-name="Group 10"><path id="b90dfe4d-72c7-41da-9029-199bcb845547" data-name="tint-solid" class="abec3a29-65dc-4b85-9959-61cf61509a00" d="M53.42975,27.399a1.678,1.678,0,0,0-3.22872,0c-2.58359,8.7159-8.10871,11.0882-8.10871,17.22667a9.77538,9.77538,0,0,0,9.71248,9.83788l.01059.00006a9.77538,9.77538,0,0,0,9.72314-9.82735l-.00006-.01059c0-6.17334-5.51282-8.47077-8.10872-17.23077ZM51.81539,50.9282a6.19487,6.19487,0,0,1-6.18769-6.18462.88411.88411,0,0,1,1.76821,0A4.42461,4.42461,0,0,0,51.81539,49.161a.88411.88411,0,1,1,0,1.76821Z"/><path id="bf18f552-8bc3-4dc4-9bbe-3bb9f7b2f510" data-name="bolt-solid" class="abec3a29-65dc-4b85-9959-61cf61509a00" d="M39.47691,33.84H32.08409l2.72923-8.3159a1.53846,1.53846,0,0,0-1.48615-1.93436H24.10152a1.53847,1.53847,0,0,0-1.52615,1.33334L20.52409,40.29744A1.53848,1.53848,0,0,0,22.04922,42.041h7.60307L26.70255,54.50154a1.53846,1.53846,0,0,0,2.82564,1.121L40.80306,36.14667A1.53847,1.53847,0,0,0,39.47691,33.84Z"/></g></svg>