<svg id="a37fa38b-ebf5-47db-99b6-883db97fa3b8" data-name="Layer 1" xmlns="http://www.w3.org/2000/svg" viewBox="0 0 80 80"><defs><style>.e86415b8-f8d7-493d-a2f5-bd6768597dc4{fill:#0bbbfd;}</style></defs><title>icon</title><path id="b1a36124-1f62-4ffb-b1d2-23b7d20e5db3" data-name="gamepad-solid" class="e86415b8-f8d7-493d-a2f5-bd6768597dc4" d="M50.25641,29.74359H29.74359a10.25641,10.25641,0,1,0,7.32205,17.4359h5.86667a10.25641,10.25641,0,1,0,7.3241-17.4359ZM35.89744,41.2841a.77128.77128,0,0,1-.76923.76923H31.79487v3.33436a.77128.77128,0,0,1-.76923.76923h-2.5641a.77127.77127,0,0,1-.76923-.76923V42.05128H24.36a.77127.77127,0,0,1-.76923-.76923V38.718a.77127.77127,0,0,1,.76923-.76923h3.33231V34.61436a.77127.77127,0,0,1,.76923-.76923h2.5641a.77128.77128,0,0,1,.76923.76923v3.33436h3.33436a.77127.77127,0,0,1,.76923.76923ZM47.69231,45.641a3.07693,3.07693,0,1,1,3.07692-3.07693h0A3.07692,3.07692,0,0,1,47.69231,45.641Zm5.1282-5.12821a3.07437,3.07437,0,1,1,.00513,0Z"/></svg>