<svg id="a6b2e4b4-c8ab-4cc4-bf59-da3220459227" data-name="Layer 1" xmlns="http://www.w3.org/2000/svg" viewBox="0 0 80 80"><defs><style>.bf497f6d-1714-46ad-b634-25f127c54310{fill:#f5f5f5;}.af327e90-4151-4971-b1ea-13559b6d85b2{fill:#dfdfdf;}</style></defs><title>icon</title><rect id="eedbff77-0023-4fbd-afe8-b0ba952b8937" data-name="Rectangle 303-2" class="bf497f6d-1714-46ad-b634-25f127c54310" width="80" height="80"/><path id="a67b77ea-644b-46b4-aa41-93206ac1effc" data-name="gamepad-solid" class="af327e90-4151-4971-b1ea-13559b6d85b2" d="M50.25641,29.74359H29.74359a10.25641,10.25641,0,1,0,7.32205,17.4359h5.86667a10.25641,10.25641,0,1,0,7.3241-17.4359ZM35.89744,41.2841a.77128.77128,0,0,1-.76923.76923H31.79487v3.33436a.77128.77128,0,0,1-.76923.76923h-2.5641a.77127.77127,0,0,1-.76923-.76923V42.05128H24.36a.77127.77127,0,0,1-.76923-.76923V38.718a.77127.77127,0,0,1,.76923-.76923h3.33231V34.61436a.77127.77127,0,0,1,.76923-.76923h2.5641a.77128.77128,0,0,1,.76923.76923v3.33436h3.33436a.77127.77127,0,0,1,.76923.76923ZM47.69231,45.641a3.07693,3.07693,0,1,1,3.07692-3.07693h0A3.07692,3.07692,0,0,1,47.69231,45.641Zm5.1282-5.12821a3.07437,3.07437,0,1,1,.00513,0Z"/></svg>