<svg id="a1a699b4-0b5a-4aa9-ac13-ee3a19afd268" data-name="Layer 1" xmlns="http://www.w3.org/2000/svg" viewBox="0 0 80 80"><defs><style>.a47c07a0-2457-4845-95b2-447245a9366e{fill:#00365c;}.a4714dbf-b85a-475a-91d3-f592defa99e4{fill:#b2d6ef;}</style></defs><title>icon</title><g id="ffcedcce-b957-431c-889b-a9014f094840" data-name="Group 89"><rect id="b937ee49-c190-4522-8728-c6bf1c1dd849" data-name="Rectangle 305-3" class="a47c07a0-2457-4845-95b2-447245a9366e" width="80" height="80"/><path id="b7a9b919-5056-48c6-98f8-e1ae06683b52" data-name="dice-d6-solid" class="a4714dbf-b85a-475a-91d3-f592defa99e4" d="M57.41846,28.29744,44.119,20.21026a4.94567,4.94567,0,0,0-5.16308,0L25.65744,28.29744a.6841.6841,0,0,0,0,1.159l15.881,9.46564,15.8759-9.46667a.68307.68307,0,0,0,0-1.159Zm1.10872,3.57641L42.82051,41.2359V59.17334a1.28307,1.28307,0,0,0,1.92718,1.15589L56.93949,52.919a5.399,5.399,0,0,0,2.54769-4.62359v-15.841a.64206.64206,0,0,0-.959-.58051Zm-34.93744.58051v15.841a5.398,5.398,0,0,0,2.5477,4.62359l12.19179,7.40923a1.28206,1.28206,0,0,0,1.92718-1.1559V41.2359l-15.70769-9.362a.64206.64206,0,0,0-.959.58051Z"/></g></svg>