<svg id="b430b6a5-6155-4cfd-b52d-37886a0af503" data-name="Layer 1" xmlns="http://www.w3.org/2000/svg" viewBox="0 0 80 80"><defs><style>.e3c459ab-f7f7-4728-bd71-1243b944cb5e{fill:#a7dcff;}</style></defs><title>icon</title><path id="bb8cf743-47b5-47d6-95bb-e6a9de15c1cb" data-name="shopping-cart-solid" class="e3c459ab-f7f7-4728-bd71-1243b944cb5e" d="M56.07692,43,59.4441,28.18462a1.70973,1.70973,0,0,0-1.66666-2.08821H29.801l-.65231-3.19077a1.70974,1.70974,0,0,0-1.67487-1.36718H20.17128a1.70975,1.70975,0,0,0-1.70974,1.70975h0v1.13948a1.70974,1.70974,0,0,0,1.70974,1.70872h4.97744L30.15385,50.558a3.98873,3.98873,0,1,0,4.77538.61026H49.85949a3.98772,3.98772,0,1,0,4.53025-.74154l.39282-1.72923a1.70973,1.70973,0,0,0-1.66666-2.08821h-19.119l-.46666-2.279h20.88A1.70974,1.70974,0,0,0,56.07692,43Z"/></svg>