<svg id="e55182a0-0628-4997-99ec-f7742caa05f2" data-name="Layer 1" xmlns="http://www.w3.org/2000/svg" viewBox="0 0 80 80"><defs><style>.bf305e37-00a3-452c-8646-fd60fc3255ae{fill:#ffac0f;}.bbf9e74a-cc33-4e54-917c-efe887799262{fill:#ffe5b5;}</style></defs><title>icon</title><g id="e0b42c8a-d1b6-422c-85c9-6a7e497b14b5" data-name="Group 81"><rect id="bcb61e6f-6275-494a-911a-69b25540d783" data-name="Rectangle 303" class="bf305e37-00a3-452c-8646-fd60fc3255ae" width="80" height="80"/><path id="fb197973-a2ad-4a93-9831-d66f03a840d5" data-name="utensils-solid" class="bbf9e74a-cc33-4e54-917c-efe887799262" d="M40.24821,21.278a97.971,97.971,0,0,1,1.29025,10.321,8.4482,8.4482,0,0,1-5.521,8.38154l1.03384,19.07692a1.92821,1.92821,0,0,1-1.824,2.02707q-.0495.00261-.09908.00268H30a1.9282,1.9282,0,0,1-1.92564-1.93077q.00006-.04848.00256-.09693l1.03385-19.07692a8.44513,8.44513,0,0,1-5.521-8.38359A97.68029,97.68029,0,0,1,24.88,21.278c.25641-1.62667,3.63282-1.65026,3.83795.0882V32.67692c.10256.27282,1.21025.25641,1.28205,0,.1118-2.02769.63282-11.15385.641-11.36205.26461-1.66667,3.58153-1.66667,3.83794,0,.01641.21641.52924,9.33333.641,11.36205.0718.25641,1.18564.27282,1.28205,0V21.36615C36.61538,19.63589,39.99179,19.65128,40.24821,21.278ZM49.799,44.17025l-1.201,14.8318a1.92205,1.92205,0,0,0,1.752,2.0782q.08122.00691.16283.00693H55a1.918,1.918,0,0,0,1.92308-1.91281V21.98359A1.92308,1.92308,0,0,0,55,20.06154c-6.61026,0-17.74359,14.30256-5.2,24.11076Z"/></g></svg>