<svg id="a2459175-6c15-4a53-b4cf-540ad768f764" data-name="Layer 1" xmlns="http://www.w3.org/2000/svg" viewBox="0 0 80 80"><defs><style>.a3d83feb-39c7-4c84-b638-fd95c17862a2{fill:#f5f5f5;}.bf730e16-4ee2-48a5-bf29-776c1090fd94{fill:#dfdfdf;}</style></defs><title>icon</title><rect id="ab3a0c7b-10bb-4664-9ba5-ec1b68b40110" data-name="Rectangle 305-2" class="a3d83feb-39c7-4c84-b638-fd95c17862a2" width="80" height="80"/><g id="e7be5230-660e-4455-a6cb-119c426977ab" data-name="Group 10"><path id="ac313250-63ee-436e-987e-1e85a148f9aa" data-name="tint-solid" class="bf730e16-4ee2-48a5-bf29-776c1090fd94" d="M53.42975,27.399a1.678,1.678,0,0,0-3.22872,0c-2.58359,8.7159-8.10871,11.0882-8.10871,17.22667a9.77538,9.77538,0,0,0,9.71248,9.83788l.01059.00006a9.77538,9.77538,0,0,0,9.72314-9.82735l-.00006-.01059c0-6.17334-5.51282-8.47077-8.10872-17.23077ZM51.81539,50.9282a6.19487,6.19487,0,0,1-6.18769-6.18462.88411.88411,0,0,1,1.76821,0A4.42461,4.42461,0,0,0,51.81539,49.161a.88411.88411,0,1,1,0,1.76821Z"/><path id="f7ef63d9-139c-4953-9971-310474e45c5a" data-name="bolt-solid" class="bf730e16-4ee2-48a5-bf29-776c1090fd94" d="M39.47691,33.84H32.08409l2.72923-8.3159a1.53846,1.53846,0,0,0-1.48615-1.93436H24.10152a1.53847,1.53847,0,0,0-1.52615,1.33334L20.52409,40.29744A1.53848,1.53848,0,0,0,22.04922,42.041h7.60307L26.70255,54.50154a1.53846,1.53846,0,0,0,2.82564,1.121L40.80306,36.14667A1.53847,1.53847,0,0,0,39.47691,33.84Z"/></g></svg>