<svg id="ae392c3c-0740-4719-9c8b-2066db980490" data-name="Layer 1" xmlns="http://www.w3.org/2000/svg" viewBox="0 0 80 80"><defs><style>.a794fddf-c26d-4fa1-9e81-d9f4f1765eba{fill:#ff590d;}</style></defs><title>icon</title><path id="af831757-f840-4f18-9102-a93c1d9563e8" data-name="subway-solid" class="a794fddf-c26d-4fa1-9e81-d9f4f1765eba" d="M58.46154,28.20513V48.718c0,4.15179-4.93744,7.69231-10.41846,7.69231l5.04615,3.98358a.64206.64206,0,0,1-.39692,1.14462h-24.359a.641.641,0,0,1-.39692-1.14462l5.04615-3.98358c-5.46461,0-10.41846-3.52923-10.41846-7.69231V28.20513c0-4.24821,5.12821-7.69231,10.25641-7.69231H48.20513C53.41333,20.51282,58.46154,23.95692,58.46154,28.20513ZM38.58974,39.10256V30.12821a1.92307,1.92307,0,0,0-1.92307-1.92308H28.33333a1.92307,1.92307,0,0,0-1.92307,1.92308h0v8.97435a1.92307,1.92307,0,0,0,1.92307,1.92308h8.33334a1.92307,1.92307,0,0,0,1.92307-1.92308Zm16.02564,0V30.12821a1.92307,1.92307,0,0,0-1.92307-1.92308H44.359a1.92307,1.92307,0,0,0-1.92307,1.92308h0v8.97435A1.92307,1.92307,0,0,0,44.359,41.02564h8.33334a1.92307,1.92307,0,0,0,1.92307-1.92308Zm-3.84615,4.48718a3.84616,3.84616,0,1,0,3.84615,3.84616,3.84616,3.84616,0,0,0-3.84615-3.84616Zm-20.51282,0a3.84616,3.84616,0,1,0,3.84615,3.84616,3.84616,3.84616,0,0,0-3.84615-3.84616Z"/></svg>