<svg id="fd462bfb-128e-4ae0-9fa5-2facafebd012" data-name="Layer 1" xmlns="http://www.w3.org/2000/svg" viewBox="0 0 80 80"><defs><style>.bc61be87-0893-4826-ad90-a21a2a569cc5{fill:#f5f5f5;}.bb79fc37-a58a-4bc1-a893-f893f7b8f3aa{fill:#dfdfdf;}</style></defs><title>icon</title><rect id="bec036d4-72fb-4436-83aa-e78b004c2264" data-name="Rectangle 304" class="bc61be87-0893-4826-ad90-a21a2a569cc5" width="80" height="80"/><g id="be4ff2e2-7774-4f7d-a31c-831208f7943b" data-name="Group 6"><path id="af7ed056-752e-4072-b696-3f47cb0f09f7" data-name="apple-alt-solid" class="bb79fc37-a58a-4bc1-a893-f893f7b8f3aa" d="M29.29317,38.4418a3.98219,3.98219,0,0,1,3.1.23382,7.61763,7.61763,0,0,1,2.60234,2.18262,10.10883,10.10883,0,0,1,1.65886,3.07746,10.97906,10.97906,0,0,1,.63979,5.17565A5.26482,5.26482,0,0,1,34.60356,53.301a3.07824,3.07824,0,0,1-1.44193.33,2.2943,2.2943,0,0,0-2.0641,1.1441,3.07819,3.07819,0,0,1-1.044,1.04792,5.26478,5.26478,0,0,1-4.97885.06144,10.979,10.979,0,0,1-4.05-3.28538A10.10891,10.10891,0,0,1,19.294,49.56138a7.61745,7.61745,0,0,1-.47182-3.36353,3.98221,3.98221,0,0,1,1.45-2.75583,6.78236,6.78236,0,0,1,2.481-1.05021,11.25477,11.25477,0,0,1,2.63947-.34735A11.25524,11.25524,0,0,1,27.086,39.99019,6.78635,6.78635,0,0,1,29.29317,38.4418Zm-2.76245-.374a3.4364,3.4364,0,0,1-.93927,1.404,4.74255,4.74255,0,0,1-1.14347.86844l-.55158.26a5.21609,5.21609,0,0,1-.63075-1.13795,3.62617,3.62617,0,0,1-.26824-2.41,3.43637,3.43637,0,0,1,.94028-1.40222,4.74226,4.74226,0,0,1,1.14346-.86843l.55207-.25909.33138.51318a4.76732,4.76732,0,0,1,.51,1.34334,3.4354,3.4354,0,0,1,.05437,1.68971Z"/><path id="b860d07b-e821-484f-85f9-14820e83e9f6" data-name="carrot-solid" class="bb79fc37-a58a-4bc1-a893-f893f7b8f3aa" d="M53.37641,40.94771A6.86153,6.86153,0,0,0,45.079,42.759l3.04923,3.04923a.88308.88308,0,0,1-1.20779,1.28863q-.02085-.01956-.04042-.04042L44.11077,44.2872l-7.08,14.50871a1.23918,1.23918,0,0,0,1.65744,1.65744l7.38461-3.602-2.71794-2.718a.87692.87692,0,0,1-.00808-1.24013l.00808-.00807a.88716.88716,0,0,1,1.2482,0l3.14872,3.14871,5.63385-2.75077a6.86256,6.86256,0,0,0-.00513-12.33435ZM58.4636,39.0195a5.48923,5.48923,0,0,0-1.67385-6.72205,5.47074,5.47074,0,0,0-.4359,8.39077l.44205.44205a5.47076,5.47076,0,0,0,8.39077-.4359,5.49026,5.49026,0,0,0-6.72205-1.67384Z"/><path id="ac764c35-c470-456c-8331-7be7afff8b8c" data-name="lemon-solid" class="bb79fc37-a58a-4bc1-a893-f893f7b8f3aa" d="M45.35048,20.45558a1.94366,1.94366,0,0,0-2.28812.41395c-1.236,1.65523-5.669.66977-7.90646,6.20843s1.63623,7.90878,1.37755,9.95178a2.17927,2.17927,0,0,0,3.648,1.47367c1.23293-1.64944,5.66633-.663,7.90374-6.2017s-1.63623-7.90878-1.37754-9.95178A1.94365,1.94365,0,0,0,45.35048,20.45558ZM39.386,25.36908a7.53037,7.53037,0,0,0-2.37386,5.87641.48335.48335,0,1,1-.95292.15037A8.43962,8.43962,0,0,1,38.80489,24.599a.48335.48335,0,1,1,.58191.772Z"/></g></svg>