<svg id="bd9717c7-de50-42db-a9bf-9518704b443f" data-name="Layer 1" xmlns="http://www.w3.org/2000/svg" viewBox="0 0 80 80"><defs><style>.ea3cfd30-3bad-4a87-961e-a4b518f57bc4{fill:#f5f5f5;}.f04cb3b8-e26e-4805-8f72-e5ec6a89c4aa{fill:#dfdfdf;}</style></defs><title>icon</title><rect id="a54d1981-c1c6-4e0d-b2d5-f7816b1071ae" data-name="Rectangle 304-2" class="ea3cfd30-3bad-4a87-961e-a4b518f57bc4" width="80" height="80"/><path id="b9c0b01b-fb6e-4e83-bad2-6d9fcecf6a57" data-name="shopping-cart-solid" class="f04cb3b8-e26e-4805-8f72-e5ec6a89c4aa" d="M56.07692,43,59.4441,28.18462a1.70973,1.70973,0,0,0-1.66666-2.08821H29.801l-.65231-3.19077a1.70974,1.70974,0,0,0-1.67487-1.36718H20.17128a1.70975,1.70975,0,0,0-1.70974,1.70975h0v1.13948a1.70974,1.70974,0,0,0,1.70974,1.70872h4.97744L30.15385,50.558a3.98873,3.98873,0,1,0,4.77538.61026H49.85949a3.98772,3.98772,0,1,0,4.53025-.74154l.39282-1.72923a1.70973,1.70973,0,0,0-1.66666-2.08821h-19.119l-.46666-2.279h20.88A1.70974,1.70974,0,0,0,56.07692,43Z"/></svg>