<svg id="b4d466dd-bdaa-4254-b1e6-c2ef504ac530" data-name="Layer 1" xmlns="http://www.w3.org/2000/svg" viewBox="0 0 80 80"><defs><style>.ad5c842c-d2b4-4f7e-9e6b-cd125c86f9fc{fill:#a7dcff;}.a864ed7e-c0ce-48b4-8dcc-d7c95028aff2{fill:#46b5ff;}</style></defs><title>icon</title><g id="e17b7a14-edf0-4ff2-b56d-1b749d39b483" data-name="Group 85"><rect id="b746cac2-d52b-4c0a-82dd-4aea5d775b46" data-name="Rectangle 304-2" class="ad5c842c-d2b4-4f7e-9e6b-cd125c86f9fc" width="80" height="80"/><path id="b895c681-4d80-4ec9-b79a-039a730cc9d4" data-name="shopping-cart-solid" class="a864ed7e-c0ce-48b4-8dcc-d7c95028aff2" d="M56.07692,43,59.4441,28.18462a1.70973,1.70973,0,0,0-1.66666-2.08821H29.801l-.65231-3.19077a1.70974,1.70974,0,0,0-1.67487-1.36718H20.17128a1.70975,1.70975,0,0,0-1.70974,1.70975h0v1.13948a1.70974,1.70974,0,0,0,1.70974,1.70872h4.97744L30.15385,50.558a3.98873,3.98873,0,1,0,4.77538.61026H49.85949a3.98772,3.98772,0,1,0,4.53025-.74154l.39282-1.72923a1.70973,1.70973,0,0,0-1.66666-2.08821h-19.119l-.46666-2.279h20.88A1.70974,1.70974,0,0,0,56.07692,43Z"/></g></svg>