<svg id="a216d87f-c9e0-4914-986a-9c490e7fa202" data-name="Layer 1" xmlns="http://www.w3.org/2000/svg" viewBox="0 0 80 80"><defs><style>.e068a12a-5d4c-4864-924c-d33b7efb521f{fill:#f5f5f5;}.a3c03263-6caf-4954-be3d-e8c053262809{fill:#dfdfdf;}</style></defs><title>icon</title><rect id="fea1fc47-ea6a-4b80-b04f-e9ed50fe18eb" data-name="Rectangle 305" class="e068a12a-5d4c-4864-924c-d33b7efb521f" width="80" height="80"/><path id="ba29a23e-4b59-4aef-ba70-d964826dadfb" data-name="subway-solid" class="a3c03263-6caf-4954-be3d-e8c053262809" d="M58.46154,28.20513V48.718c0,4.15179-4.93744,7.69231-10.41846,7.69231l5.04615,3.98358a.64206.64206,0,0,1-.39692,1.14462h-24.359a.641.641,0,0,1-.39692-1.14462l5.04615-3.98358c-5.46461,0-10.41846-3.52923-10.41846-7.69231V28.20513c0-4.24821,5.12821-7.69231,10.25641-7.69231H48.20513C53.41333,20.51282,58.46154,23.95692,58.46154,28.20513ZM38.58974,39.10256V30.12821a1.92307,1.92307,0,0,0-1.92307-1.92308H28.33333a1.92307,1.92307,0,0,0-1.92307,1.92308h0v8.97435a1.92307,1.92307,0,0,0,1.92307,1.92308h8.33334a1.92307,1.92307,0,0,0,1.92307-1.92308Zm16.02564,0V30.12821a1.92307,1.92307,0,0,0-1.92307-1.92308H44.359a1.92307,1.92307,0,0,0-1.92307,1.92308h0v8.97435A1.92307,1.92307,0,0,0,44.359,41.02564h8.33334a1.92307,1.92307,0,0,0,1.92307-1.92308Zm-3.84615,4.48718a3.84616,3.84616,0,1,0,3.84615,3.84616,3.84616,3.84616,0,0,0-3.84615-3.84616Zm-20.51282,0a3.84616,3.84616,0,1,0,3.84615,3.84616,3.84616,3.84616,0,0,0-3.84615-3.84616Z"/></svg>