<svg id="a30ffafc-0ab3-4aa6-92bb-e02c979c80aa" data-name="Layer 1" xmlns="http://www.w3.org/2000/svg" viewBox="0 0 80 80"><defs><style>.e3675e2f-a9b1-46f8-b848-b5111f7ed261{fill:#0bbbfd;}.a80a8e1d-ad93-4167-b933-0da47da2a5ba{fill:#b8ecff;}</style></defs><title>icon</title><g id="f93cf8d6-7b8f-4e4c-8932-7497e4a9494f" data-name="Group 86"><rect id="a936e9d5-f4cd-4f71-8ad7-058433c4ad70" data-name="Rectangle 303-2" class="e3675e2f-a9b1-46f8-b848-b5111f7ed261" width="80" height="80"/><path id="ff4d2089-3b88-4afd-a1d5-acd0a74e460e" data-name="gamepad-solid" class="a80a8e1d-ad93-4167-b933-0da47da2a5ba" d="M50.25641,29.74359H29.74359a10.25641,10.25641,0,1,0,7.32205,17.4359h5.86667a10.25641,10.25641,0,1,0,7.3241-17.4359ZM35.89744,41.2841a.77128.77128,0,0,1-.76923.76923H31.79487v3.33436a.77128.77128,0,0,1-.76923.76923h-2.5641a.77127.77127,0,0,1-.76923-.76923V42.05128H24.36a.77127.77127,0,0,1-.76923-.76923V38.718a.77127.77127,0,0,1,.76923-.76923h3.33231V34.61436a.77127.77127,0,0,1,.76923-.76923h2.5641a.77128.77128,0,0,1,.76923.76923v3.33436h3.33436a.77127.77127,0,0,1,.76923.76923ZM47.69231,45.641a3.07693,3.07693,0,1,1,3.07692-3.07693h0A3.07692,3.07692,0,0,1,47.69231,45.641Zm5.1282-5.12821a3.07437,3.07437,0,1,1,.00513,0Z"/></g></svg>