<svg id="b75e3a56-f018-4b5e-a44b-9b14df88266e" data-name="Layer 1" xmlns="http://www.w3.org/2000/svg" viewBox="0 0 80 80"><defs><style>.e233b5e7-c5fb-4964-96b7-b4bef4970197{fill:#f5f5f5;}.ed0a0ba4-9899-4707-8fad-c1a6ba847372{fill:#dfdfdf;}</style></defs><title>icon</title><rect id="a468befd-c58a-4011-baac-8b807ab4b42f" data-name="Rectangle 305-3" class="e233b5e7-c5fb-4964-96b7-b4bef4970197" width="80" height="80"/><path id="b5e6825e-c26d-4ebb-9ad1-b355056e9202" data-name="dice-d6-solid" class="ed0a0ba4-9899-4707-8fad-c1a6ba847372" d="M57.41846,28.29744,44.119,20.21026a4.94567,4.94567,0,0,0-5.16308,0L25.65744,28.29744a.6841.6841,0,0,0,0,1.159l15.881,9.46564,15.8759-9.46667a.68307.68307,0,0,0,0-1.159Zm1.10872,3.57641L42.82051,41.2359V59.17334a1.28307,1.28307,0,0,0,1.92718,1.15589L56.93949,52.919a5.399,5.399,0,0,0,2.54769-4.62359v-15.841a.64206.64206,0,0,0-.959-.58051Zm-34.93744.58051v15.841a5.398,5.398,0,0,0,2.5477,4.62359l12.19179,7.40923a1.28206,1.28206,0,0,0,1.92718-1.1559V41.2359l-15.70769-9.362a.64206.64206,0,0,0-.959.58051Z"/></svg>