<svg id="eddc240f-75d8-4cde-9563-a410effcbd89" data-name="Layer 1" xmlns="http://www.w3.org/2000/svg" viewBox="0 0 80 80"><defs><style>.fef4bad8-89e4-40fd-b32a-6bcaafdfcc78{fill:#ffcb0d;}.a157ea85-d257-4fb8-a5a0-ff199ba0b3d3{fill:#fff0b8;}</style></defs><title>icon</title><g id="ec771897-5d6b-4d55-8fb4-ed68109c105d" data-name="Group 84"><rect id="bb89b7b8-f226-4325-9872-2ffb30ba3f5c" data-name="Rectangle 305-2" class="fef4bad8-89e4-40fd-b32a-6bcaafdfcc78" width="80" height="80"/><g id="ff6433f1-38db-456c-b511-fa514c0f4e51" data-name="Group 10"><path id="a6a0d463-b8f6-4780-b0f8-7992d73651bc" data-name="tint-solid" class="a157ea85-d257-4fb8-a5a0-ff199ba0b3d3" d="M53.42975,27.399a1.678,1.678,0,0,0-3.22872,0c-2.58359,8.7159-8.10871,11.0882-8.10871,17.22667a9.77538,9.77538,0,0,0,9.71248,9.83788l.01059.00006a9.77538,9.77538,0,0,0,9.72314-9.82735l-.00006-.01059c0-6.17334-5.51282-8.47077-8.10872-17.23077ZM51.81539,50.9282a6.19487,6.19487,0,0,1-6.18769-6.18462.88411.88411,0,0,1,1.76821,0A4.42461,4.42461,0,0,0,51.81539,49.161a.88411.88411,0,1,1,0,1.76821Z"/><path id="a1861a69-03d4-41f9-94cb-73107a5d833f" data-name="bolt-solid" class="a157ea85-d257-4fb8-a5a0-ff199ba0b3d3" d="M39.47691,33.84H32.08409l2.72923-8.3159a1.53846,1.53846,0,0,0-1.48615-1.93436H24.10152a1.53847,1.53847,0,0,0-1.52615,1.33334L20.52409,40.29744A1.53848,1.53848,0,0,0,22.04922,42.041h7.60307L26.70255,54.50154a1.53846,1.53846,0,0,0,2.82564,1.121L40.80306,36.14667A1.53847,1.53847,0,0,0,39.47691,33.84Z"/></g></g></svg>