<svg id="b5b75bfe-3d80-4ea4-b866-1a3597d4b7f7" data-name="Layer 1" xmlns="http://www.w3.org/2000/svg" viewBox="0 0 80 80"><defs><style>.a798570d-41db-4b6c-85d3-813b2d609285{fill:#ffcb0d;}</style></defs><title>icon</title><g id="e3c9a2a4-93ba-493f-9937-0fdf6e8bb240" data-name="Group 10"><path id="bf6cad28-e711-4fc7-9e52-12f94046eb4b" data-name="tint-solid" class="a798570d-41db-4b6c-85d3-813b2d609285" d="M53.42975,27.399a1.678,1.678,0,0,0-3.22872,0c-2.58359,8.7159-8.10871,11.0882-8.10871,17.22667a9.77538,9.77538,0,0,0,9.71248,9.83788l.01059.00006a9.77538,9.77538,0,0,0,9.72314-9.82735l-.00006-.01059c0-6.17334-5.51282-8.47077-8.10872-17.23077ZM51.81539,50.9282a6.19487,6.19487,0,0,1-6.18769-6.18462.88411.88411,0,0,1,1.76821,0A4.42461,4.42461,0,0,0,51.81539,49.161a.88411.88411,0,1,1,0,1.76821Z"/><path id="b6287105-db2f-49d8-b557-0fe08c113128" data-name="bolt-solid" class="a798570d-41db-4b6c-85d3-813b2d609285" d="M39.47691,33.84H32.08409l2.72923-8.3159a1.53846,1.53846,0,0,0-1.48615-1.93436H24.10152a1.53847,1.53847,0,0,0-1.52615,1.33334L20.52409,40.29744A1.53848,1.53848,0,0,0,22.04922,42.041h7.60307L26.70255,54.50154a1.53846,1.53846,0,0,0,2.82564,1.121L40.80306,36.14667A1.53847,1.53847,0,0,0,39.47691,33.84Z"/></g></svg>