<svg id="ea84c4b0-0c8f-41d3-8fa2-6d9dc562adf1" data-name="Layer 1" xmlns="http://www.w3.org/2000/svg" viewBox="0 0 80 80"><defs><style>.bd2ae743-bc71-4a84-ad7b-1133069d2c18{fill:#ff590d;}.baa77044-b85b-43b8-a300-3723241f0bfb{fill:#ffc1a5;}</style></defs><title>icon</title><g id="f9217ef3-139e-41df-bd94-41b35420528c" data-name="Group 83"><rect id="f05ec853-90ab-4f49-bb99-de55f11104f9" data-name="Rectangle 305" class="bd2ae743-bc71-4a84-ad7b-1133069d2c18" width="80" height="80"/><path id="b6ee591a-a671-4938-9054-36145cd0ce7e" data-name="subway-solid" class="baa77044-b85b-43b8-a300-3723241f0bfb" d="M58.46154,28.20513V48.718c0,4.15179-4.93744,7.69231-10.41846,7.69231l5.04615,3.98358a.64206.64206,0,0,1-.39692,1.14462h-24.359a.641.641,0,0,1-.39692-1.14462l5.04615-3.98358c-5.46461,0-10.41846-3.52923-10.41846-7.69231V28.20513c0-4.24821,5.12821-7.69231,10.25641-7.69231H48.20513C53.41333,20.51282,58.46154,23.95692,58.46154,28.20513ZM38.58974,39.10256V30.12821a1.92307,1.92307,0,0,0-1.92307-1.92308H28.33333a1.92307,1.92307,0,0,0-1.92307,1.92308h0v8.97435a1.92307,1.92307,0,0,0,1.92307,1.92308h8.33334a1.92307,1.92307,0,0,0,1.92307-1.92308Zm16.02564,0V30.12821a1.92307,1.92307,0,0,0-1.92307-1.92308H44.359a1.92307,1.92307,0,0,0-1.92307,1.92308h0v8.97435A1.92307,1.92307,0,0,0,44.359,41.02564h8.33334a1.92307,1.92307,0,0,0,1.92307-1.92308Zm-3.84615,4.48718a3.84616,3.84616,0,1,0,3.84615,3.84616,3.84616,3.84616,0,0,0-3.84615-3.84616Zm-20.51282,0a3.84616,3.84616,0,1,0,3.84615,3.84616,3.84616,3.84616,0,0,0-3.84615-3.84616Z"/></g></svg>