<svg id="fdcb65be-688d-4457-a89c-1e250eb327a6" data-name="Layer 1" xmlns="http://www.w3.org/2000/svg" viewBox="0 0 80 80"><defs><style>.b8149120-46a4-4da0-904e-7deb7c4815b9{fill:#0bbbfd;}.a8d6d022-e3d3-4efe-8044-fadbf3bd52d0{fill:#b8ecff;}</style></defs><title>t</title><g id="ba1b0c6b-4d44-419c-835f-3404723e6544" data-name="Group 86"><rect id="aaea4f38-2ad1-4090-9622-548a107b34a8" data-name="Rectangle 303-2" class="b8149120-46a4-4da0-904e-7deb7c4815b9" width="80" height="80"/><path id="b67da707-4c6e-49a7-9bb6-9787654106cf" data-name="gamepad-solid" class="a8d6d022-e3d3-4efe-8044-fadbf3bd52d0" d="M50.25641,29.74359H29.74359a10.25641,10.25641,0,1,0,7.32205,17.4359h5.86667a10.25641,10.25641,0,1,0,7.3241-17.4359ZM35.89744,41.2841a.77128.77128,0,0,1-.76923.76923H31.79487v3.33436a.77128.77128,0,0,1-.76923.76923h-2.5641a.77127.77127,0,0,1-.76923-.76923V42.05128H24.36a.77127.77127,0,0,1-.76923-.76923V38.718a.77127.77127,0,0,1,.76923-.76923h3.33231V34.61436a.77127.77127,0,0,1,.76923-.76923h2.5641a.77128.77128,0,0,1,.76923.76923v3.33436h3.33436a.77127.77127,0,0,1,.76923.76923ZM47.69231,45.641a3.07693,3.07693,0,1,1,3.07692-3.07693h0A3.07692,3.07692,0,0,1,47.69231,45.641Zm5.1282-5.12821a3.07437,3.07437,0,1,1,.00513,0Z"/></g></svg>