<svg id="fb5e6a03-35b7-4261-9216-29c052c0e538" data-name="Layer 1" xmlns="http://www.w3.org/2000/svg" viewBox="0 0 80 80"><defs><style>.e55af2bf-5bc0-49d2-9f70-c452142ab9d5{fill:#f5f5f5;}.f8a89797-d2ec-48da-a741-a9397b3a95d5{fill:#dfdfdf;}</style></defs><title>t</title><rect id="bd92ec20-766e-407f-99a2-9861f4d5f047" data-name="Rectangle 303-2" class="e55af2bf-5bc0-49d2-9f70-c452142ab9d5" width="80" height="80"/><path id="b242c356-9558-4d05-9e6b-dc1283ea4f43" data-name="gamepad-solid" class="f8a89797-d2ec-48da-a741-a9397b3a95d5" d="M50.25641,29.74359H29.74359a10.25641,10.25641,0,1,0,7.32205,17.4359h5.86667a10.25641,10.25641,0,1,0,7.3241-17.4359ZM35.89744,41.2841a.77128.77128,0,0,1-.76923.76923H31.79487v3.33436a.77128.77128,0,0,1-.76923.76923h-2.5641a.77127.77127,0,0,1-.76923-.76923V42.05128H24.36a.77127.77127,0,0,1-.76923-.76923V38.718a.77127.77127,0,0,1,.76923-.76923h3.33231V34.61436a.77127.77127,0,0,1,.76923-.76923h2.5641a.77128.77128,0,0,1,.76923.76923v3.33436h3.33436a.77127.77127,0,0,1,.76923.76923ZM47.69231,45.641a3.07693,3.07693,0,1,1,3.07692-3.07693h0A3.07692,3.07692,0,0,1,47.69231,45.641Zm5.1282-5.12821a3.07437,3.07437,0,1,1,.00513,0Z"/></svg>