<svg id="f41b958c-bcb9-43a5-af1d-30c4c37027e1" data-name="Layer 1" xmlns="http://www.w3.org/2000/svg" viewBox="0 0 80 80"><defs><style>.bce8177b-256d-4568-884c-cb987bcb5f7e{fill:#ffac0f;}.a50c8bc6-482d-4c5d-988b-b9797771a3e4{fill:#ffe5b5;}</style></defs><title>t</title><g id="b6723ab5-82a0-4f12-9b1a-b76c65ae3158" data-name="Group 81"><rect id="eac6e184-ae16-4464-b337-c211d21a5eb2" data-name="Rectangle 303" class="bce8177b-256d-4568-884c-cb987bcb5f7e" width="80" height="80"/><path id="a5b16776-3910-46ae-89f7-6c96d639ba0a" data-name="utensils-solid" class="a50c8bc6-482d-4c5d-988b-b9797771a3e4" d="M40.24821,21.278a97.971,97.971,0,0,1,1.29025,10.321,8.4482,8.4482,0,0,1-5.521,8.38154l1.03384,19.07692a1.92821,1.92821,0,0,1-1.824,2.02707q-.0495.00261-.09908.00268H30a1.9282,1.9282,0,0,1-1.92564-1.93077q.00006-.04848.00256-.09693l1.03385-19.07692a8.44513,8.44513,0,0,1-5.521-8.38359A97.68029,97.68029,0,0,1,24.88,21.278c.25641-1.62667,3.63282-1.65026,3.83795.0882V32.67692c.10256.27282,1.21025.25641,1.28205,0,.1118-2.02769.63282-11.15385.641-11.36205.26461-1.66667,3.58153-1.66667,3.83794,0,.01641.21641.52924,9.33333.641,11.36205.0718.25641,1.18564.27282,1.28205,0V21.36615C36.61538,19.63589,39.99179,19.65128,40.24821,21.278ZM49.799,44.17025l-1.201,14.8318a1.92205,1.92205,0,0,0,1.752,2.0782q.08122.00691.16283.00693H55a1.918,1.918,0,0,0,1.92308-1.91281V21.98359A1.92308,1.92308,0,0,0,55,20.06154c-6.61026,0-17.74359,14.30256-5.2,24.11076Z"/></g></svg>