<svg id="a68c93d0-9a0c-4675-a550-c5506986f1e8" data-name="Layer 1" xmlns="http://www.w3.org/2000/svg" viewBox="0 0 80 80"><defs><style>.e0013cb1-74c5-4a4a-af45-b9c158a47d26{fill:#f5f5f5;}.adfab8d3-bc6c-474a-b02d-c4b1d016dd2c{fill:#dfdfdf;}</style></defs><title>t</title><rect id="aa079ebf-5618-4282-91c4-48630ec17f35" data-name="Rectangle 303" class="e0013cb1-74c5-4a4a-af45-b9c158a47d26" width="80" height="80"/><path id="f8cebc83-9176-44ad-bd85-003a5a7d24e8" data-name="utensils-solid" class="adfab8d3-bc6c-474a-b02d-c4b1d016dd2c" d="M40.24821,21.278a97.971,97.971,0,0,1,1.29025,10.321,8.4482,8.4482,0,0,1-5.521,8.38154l1.03384,19.07692a1.92821,1.92821,0,0,1-1.824,2.02707q-.0495.00261-.09908.00268H30a1.9282,1.9282,0,0,1-1.92564-1.93077q.00006-.04848.00256-.09693l1.03385-19.07692a8.44513,8.44513,0,0,1-5.521-8.38359A97.68029,97.68029,0,0,1,24.88,21.278c.25641-1.62667,3.63282-1.65026,3.83795.0882V32.67692c.10256.27282,1.21025.25641,1.28205,0,.1118-2.02769.63282-11.15385.641-11.36205.26461-1.66667,3.58153-1.66667,3.83794,0,.01641.21641.52924,9.33333.641,11.36205.0718.25641,1.18564.27282,1.28205,0V21.36615C36.61538,19.63589,39.99179,19.65128,40.24821,21.278ZM49.799,44.17025l-1.201,14.8318a1.92205,1.92205,0,0,0,1.752,2.0782q.08122.00691.16283.00693H55a1.918,1.918,0,0,0,1.92308-1.91281V21.98359A1.92308,1.92308,0,0,0,55,20.06154c-6.61026,0-17.74359,14.30256-5.2,24.11076Z"/></svg>