<svg id="b5fe42c8-2bfa-4317-b9cc-757400b14293" data-name="Layer 1" xmlns="http://www.w3.org/2000/svg" viewBox="0 0 80 80"><defs><style>.b269ed84-6ef7-4e23-bcbf-86fe9632ed96{fill:#f5f5f5;}.bc8d187f-c97a-4f51-bcbd-43c0609b9159{fill:#dfdfdf;}</style></defs><title>t</title><rect id="e36f316c-3270-46e7-bdbf-dd44abb12fd4" data-name="Rectangle 305-3" class="b269ed84-6ef7-4e23-bcbf-86fe9632ed96" width="80" height="80"/><path id="f7f30665-8347-401b-b812-897607dba79c" data-name="dice-d6-solid" class="bc8d187f-c97a-4f51-bcbd-43c0609b9159" d="M57.41846,28.29744,44.119,20.21026a4.94567,4.94567,0,0,0-5.16308,0L25.65744,28.29744a.6841.6841,0,0,0,0,1.159l15.881,9.46564,15.8759-9.46667a.68307.68307,0,0,0,0-1.159Zm1.10872,3.57641L42.82051,41.2359V59.17334a1.28307,1.28307,0,0,0,1.92718,1.15589L56.93949,52.919a5.399,5.399,0,0,0,2.54769-4.62359v-15.841a.64206.64206,0,0,0-.959-.58051Zm-34.93744.58051v15.841a5.398,5.398,0,0,0,2.5477,4.62359l12.19179,7.40923a1.28206,1.28206,0,0,0,1.92718-1.1559V41.2359l-15.70769-9.362a.64206.64206,0,0,0-.959.58051Z"/></svg>