<svg id="bc6ec83b-c04d-4503-98aa-0d51fb70012c" data-name="Layer 1" xmlns="http://www.w3.org/2000/svg" viewBox="0 0 80 80"><defs><style>.ef043b92-3382-4945-9383-ae2ceddcc00d{fill:#00365c;}.bd0d3353-0eea-49b6-9e0d-5b317cf5e352{fill:#b2d6ef;}</style></defs><title>t</title><g id="f25c4660-8a7b-4be3-bc53-caea44154f75" data-name="Group 89"><rect id="a45ed04c-d808-4679-bf35-994a3cd38675" data-name="Rectangle 305-3" class="ef043b92-3382-4945-9383-ae2ceddcc00d" width="80" height="80"/><path id="a67cda14-0ae3-454d-b6c0-374547a1f8a7" data-name="dice-d6-solid" class="bd0d3353-0eea-49b6-9e0d-5b317cf5e352" d="M57.41846,28.29744,44.119,20.21026a4.94567,4.94567,0,0,0-5.16308,0L25.65744,28.29744a.6841.6841,0,0,0,0,1.159l15.881,9.46564,15.8759-9.46667a.68307.68307,0,0,0,0-1.159Zm1.10872,3.57641L42.82051,41.2359V59.17334a1.28307,1.28307,0,0,0,1.92718,1.15589L56.93949,52.919a5.399,5.399,0,0,0,2.54769-4.62359v-15.841a.64206.64206,0,0,0-.959-.58051Zm-34.93744.58051v15.841a5.398,5.398,0,0,0,2.5477,4.62359l12.19179,7.40923a1.28206,1.28206,0,0,0,1.92718-1.1559V41.2359l-15.70769-9.362a.64206.64206,0,0,0-.959.58051Z"/></g></svg>