<svg id="fccfb520-fe55-4092-83c7-573538df2121" data-name="Layer 1" xmlns="http://www.w3.org/2000/svg" viewBox="0 0 80 80"><defs><style>.b84a2df7-8b38-47f7-89fd-108ed65ca912{fill:#a7dcff;}.a01adf0b-2331-40ea-af10-cb3edc4b6172{fill:#46b5ff;}</style></defs><title>t</title><g id="b0c5db4e-b9b8-48a2-9637-aaf9e21a871f" data-name="Group 85"><rect id="aa0426e3-52db-4197-965f-f6a8b9b9e704" data-name="Rectangle 304-2" class="b84a2df7-8b38-47f7-89fd-108ed65ca912" width="80" height="80"/><path id="faefcd70-d8bb-4f4e-91ce-8eb4c584d0aa" data-name="shopping-cart-solid" class="a01adf0b-2331-40ea-af10-cb3edc4b6172" d="M56.07692,43,59.4441,28.18462a1.70973,1.70973,0,0,0-1.66666-2.08821H29.801l-.65231-3.19077a1.70974,1.70974,0,0,0-1.67487-1.36718H20.17128a1.70975,1.70975,0,0,0-1.70974,1.70975h0v1.13948a1.70974,1.70974,0,0,0,1.70974,1.70872h4.97744L30.15385,50.558a3.98873,3.98873,0,1,0,4.77538.61026H49.85949a3.98772,3.98772,0,1,0,4.53025-.74154l.39282-1.72923a1.70973,1.70973,0,0,0-1.66666-2.08821h-19.119l-.46666-2.279h20.88A1.70974,1.70974,0,0,0,56.07692,43Z"/></g></svg>