<svg id="f02c32e3-3b88-4638-bc2b-779eb2921208" data-name="Layer 1" xmlns="http://www.w3.org/2000/svg" viewBox="0 0 80 80"><defs><style>.fb163d4f-0c58-487c-9a06-82f8e4585391{fill:#f5f5f5;}.a34a74ce-a4d7-46cd-a09e-f2f9173b859d{fill:#dfdfdf;}</style></defs><title>t</title><rect id="fed82907-fe06-4d6e-a0a2-d9608969a330" data-name="Rectangle 304-2" class="fb163d4f-0c58-487c-9a06-82f8e4585391" width="80" height="80"/><path id="ada7ca86-3226-4caa-b8c6-8c55a1dbb1cb" data-name="shopping-cart-solid" class="a34a74ce-a4d7-46cd-a09e-f2f9173b859d" d="M56.07692,43,59.4441,28.18462a1.70973,1.70973,0,0,0-1.66666-2.08821H29.801l-.65231-3.19077a1.70974,1.70974,0,0,0-1.67487-1.36718H20.17128a1.70975,1.70975,0,0,0-1.70974,1.70975h0v1.13948a1.70974,1.70974,0,0,0,1.70974,1.70872h4.97744L30.15385,50.558a3.98873,3.98873,0,1,0,4.77538.61026H49.85949a3.98772,3.98772,0,1,0,4.53025-.74154l.39282-1.72923a1.70973,1.70973,0,0,0-1.66666-2.08821h-19.119l-.46666-2.279h20.88A1.70974,1.70974,0,0,0,56.07692,43Z"/></svg>