<svg id="b02194a0-c1c9-4c31-8b15-995c4e73e752" data-name="Layer 1" xmlns="http://www.w3.org/2000/svg" viewBox="0 0 80 80"><defs><style>.ab4b770c-72e1-43fd-b8f1-b273b5a175b3{fill:#ff590d;}.bd4e1b86-bcdf-44d3-95f7-06c594f1086e{fill:#ffc1a5;}</style></defs><title>t</title><g id="a78be787-00fd-469b-ae8f-974d3dea26e9" data-name="Group 83"><rect id="a1261446-df4f-468c-b8ab-c26d0e90f21c" data-name="Rectangle 305" class="ab4b770c-72e1-43fd-b8f1-b273b5a175b3" width="80" height="80"/><path id="f62f4019-2559-45ee-8388-15bb3cf62594" data-name="subway-solid" class="bd4e1b86-bcdf-44d3-95f7-06c594f1086e" d="M58.46154,28.20513V48.718c0,4.15179-4.93744,7.69231-10.41846,7.69231l5.04615,3.98358a.64206.64206,0,0,1-.39692,1.14462h-24.359a.641.641,0,0,1-.39692-1.14462l5.04615-3.98358c-5.46461,0-10.41846-3.52923-10.41846-7.69231V28.20513c0-4.24821,5.12821-7.69231,10.25641-7.69231H48.20513C53.41333,20.51282,58.46154,23.95692,58.46154,28.20513ZM38.58974,39.10256V30.12821a1.92307,1.92307,0,0,0-1.92307-1.92308H28.33333a1.92307,1.92307,0,0,0-1.92307,1.92308h0v8.97435a1.92307,1.92307,0,0,0,1.92307,1.92308h8.33334a1.92307,1.92307,0,0,0,1.92307-1.92308Zm16.02564,0V30.12821a1.92307,1.92307,0,0,0-1.92307-1.92308H44.359a1.92307,1.92307,0,0,0-1.92307,1.92308h0v8.97435A1.92307,1.92307,0,0,0,44.359,41.02564h8.33334a1.92307,1.92307,0,0,0,1.92307-1.92308Zm-3.84615,4.48718a3.84616,3.84616,0,1,0,3.84615,3.84616,3.84616,3.84616,0,0,0-3.84615-3.84616Zm-20.51282,0a3.84616,3.84616,0,1,0,3.84615,3.84616,3.84616,3.84616,0,0,0-3.84615-3.84616Z"/></g></svg>