<svg id="e0b65958-513b-42fd-9d8c-8c6cbfaafe5c" data-name="Layer 1" xmlns="http://www.w3.org/2000/svg" viewBox="0 0 80 80"><defs><style>.f40079b0-bf38-4506-a8e8-6a45da68a406{fill:#f5f5f5;}.a16cf0ff-6c38-4ea9-86da-902e5f5e9171{fill:#dfdfdf;}</style></defs><title>t</title><rect id="e8f46768-5e38-4bbf-af9b-622b0b2fdfc1" data-name="Rectangle 305" class="f40079b0-bf38-4506-a8e8-6a45da68a406" width="80" height="80"/><path id="e3799e68-b6cc-4dad-82ff-1a24e92826d8" data-name="subway-solid" class="a16cf0ff-6c38-4ea9-86da-902e5f5e9171" d="M58.46154,28.20513V48.718c0,4.15179-4.93744,7.69231-10.41846,7.69231l5.04615,3.98358a.64206.64206,0,0,1-.39692,1.14462h-24.359a.641.641,0,0,1-.39692-1.14462l5.04615-3.98358c-5.46461,0-10.41846-3.52923-10.41846-7.69231V28.20513c0-4.24821,5.12821-7.69231,10.25641-7.69231H48.20513C53.41333,20.51282,58.46154,23.95692,58.46154,28.20513ZM38.58974,39.10256V30.12821a1.92307,1.92307,0,0,0-1.92307-1.92308H28.33333a1.92307,1.92307,0,0,0-1.92307,1.92308h0v8.97435a1.92307,1.92307,0,0,0,1.92307,1.92308h8.33334a1.92307,1.92307,0,0,0,1.92307-1.92308Zm16.02564,0V30.12821a1.92307,1.92307,0,0,0-1.92307-1.92308H44.359a1.92307,1.92307,0,0,0-1.92307,1.92308h0v8.97435A1.92307,1.92307,0,0,0,44.359,41.02564h8.33334a1.92307,1.92307,0,0,0,1.92307-1.92308Zm-3.84615,4.48718a3.84616,3.84616,0,1,0,3.84615,3.84616,3.84616,3.84616,0,0,0-3.84615-3.84616Zm-20.51282,0a3.84616,3.84616,0,1,0,3.84615,3.84616,3.84616,3.84616,0,0,0-3.84615-3.84616Z"/></svg>