<svg id="e1855b46-6964-4e44-9f09-205af5db936b" data-name="Layer 1" xmlns="http://www.w3.org/2000/svg" viewBox="0 0 80 80"><defs><style>.b58e1831-5426-4f58-b35a-133a0c449936{fill:#ffcb0d;}.ad0e906a-1c08-4d20-b6a8-677350943251{fill:#fff0b8;}</style></defs><title>t</title><g id="fa4e7df9-6135-405b-81e9-15957bf1e490" data-name="Group 84"><rect id="aa242101-560a-4c56-98f8-207b7606a014" data-name="Rectangle 305-2" class="b58e1831-5426-4f58-b35a-133a0c449936" width="80" height="80"/><g id="afda4278-9aa5-41b0-866d-869929f77e54" data-name="Group 10"><path id="ffa3d4be-c1fb-48d3-9fd6-7271ee62d16e" data-name="tint-solid" class="ad0e906a-1c08-4d20-b6a8-677350943251" d="M53.42975,27.399a1.678,1.678,0,0,0-3.22872,0c-2.58359,8.7159-8.10871,11.0882-8.10871,17.22667a9.77538,9.77538,0,0,0,9.71248,9.83788l.01059.00006a9.77538,9.77538,0,0,0,9.72314-9.82735l-.00006-.01059c0-6.17334-5.51282-8.47077-8.10872-17.23077ZM51.81539,50.9282a6.19487,6.19487,0,0,1-6.18769-6.18462.88411.88411,0,0,1,1.76821,0A4.42461,4.42461,0,0,0,51.81539,49.161a.88411.88411,0,1,1,0,1.76821Z"/><path id="a9fa8325-37eb-4972-b280-5eb652761004" data-name="bolt-solid" class="ad0e906a-1c08-4d20-b6a8-677350943251" d="M39.47691,33.84H32.08409l2.72923-8.3159a1.53846,1.53846,0,0,0-1.48615-1.93436H24.10152a1.53847,1.53847,0,0,0-1.52615,1.33334L20.52409,40.29744A1.53848,1.53848,0,0,0,22.04922,42.041h7.60307L26.70255,54.50154a1.53846,1.53846,0,0,0,2.82564,1.121L40.80306,36.14667A1.53847,1.53847,0,0,0,39.47691,33.84Z"/></g></g></svg>