<svg id="e18dd55a-9d26-4b13-8b97-43035d41f230" data-name="Layer 1" xmlns="http://www.w3.org/2000/svg" viewBox="0 0 80 80"><defs><style>.b8d0bad6-f3e6-4493-a1e8-e1b8bd266257{fill:#f5f5f5;}.bb3fceea-d59a-4d24-8f9a-1d7695fcc745{fill:#dfdfdf;}</style></defs><title>t</title><rect id="eb0777fe-66d6-4b5a-aca5-783a981b4f86" data-name="Rectangle 305-2" class="b8d0bad6-f3e6-4493-a1e8-e1b8bd266257" width="80" height="80"/><g id="fbd7d315-b506-4506-b1fe-e67e78ce636c" data-name="Group 10"><path id="eb2e1acb-fe1e-42aa-9567-b6ddc0e399c2" data-name="tint-solid" class="bb3fceea-d59a-4d24-8f9a-1d7695fcc745" d="M53.42975,27.399a1.678,1.678,0,0,0-3.22872,0c-2.58359,8.7159-8.10871,11.0882-8.10871,17.22667a9.77538,9.77538,0,0,0,9.71248,9.83788l.01059.00006a9.77538,9.77538,0,0,0,9.72314-9.82735l-.00006-.01059c0-6.17334-5.51282-8.47077-8.10872-17.23077ZM51.81539,50.9282a6.19487,6.19487,0,0,1-6.18769-6.18462.88411.88411,0,0,1,1.76821,0A4.42461,4.42461,0,0,0,51.81539,49.161a.88411.88411,0,1,1,0,1.76821Z"/><path id="a099556c-e262-48f3-8e2e-662bd97f7b3b" data-name="bolt-solid" class="bb3fceea-d59a-4d24-8f9a-1d7695fcc745" d="M39.47691,33.84H32.08409l2.72923-8.3159a1.53846,1.53846,0,0,0-1.48615-1.93436H24.10152a1.53847,1.53847,0,0,0-1.52615,1.33334L20.52409,40.29744A1.53848,1.53848,0,0,0,22.04922,42.041h7.60307L26.70255,54.50154a1.53846,1.53846,0,0,0,2.82564,1.121L40.80306,36.14667A1.53847,1.53847,0,0,0,39.47691,33.84Z"/></g></svg>